<?xml version="1.0" encoding="UTF-8"?>
<!DOCTYPE svg PUBLIC "-//W3C//DTD SVG 1.1//EN" "http://www.w3.org/Graphics/SVG/1.1/DTD/svg11.dtd">
<svg xmlns="http://www.w3.org/2000/svg" version="1.1" width="500px" height="500px" style="shape-rendering:geometricPrecision; text-rendering:geometricPrecision; image-rendering:optimizeQuality; fill-rule:evenodd; clip-rule:evenodd" xmlns:xlink="http://www.w3.org/1999/xlink">
<g><path style="opacity:0.145" fill="#fdd4d6" d="M 344.5,100.5 C 343.486,101.674 342.153,102.34 340.5,102.5C 341.287,100.896 342.62,100.229 344.5,100.5 Z"/></g>
<g><path style="opacity:0.173" fill="#ffbdbd" d="M 340.5,102.5 C 339.738,104.262 338.404,105.262 336.5,105.5C 337.262,103.738 338.596,102.738 340.5,102.5 Z"/></g>
<g><path style="opacity:0.004" fill="#feddde" d="M 369.5,104.5 C 371.833,104.833 373.167,106.167 373.5,108.5C 371.833,107.5 370.5,106.167 369.5,104.5 Z"/></g>
<g><path style="opacity:0.322" fill="#fda7a4" d="M 392.5,105.5 C 388.888,106.422 385.221,107.089 381.5,107.5C 384.356,105.923 387.522,104.923 391,104.5C 391.765,104.57 392.265,104.903 392.5,105.5 Z"/></g>
<g><path style="opacity:0.021" fill="#ffebeb" d="M 394.5,105.5 C 397.228,105.171 399.562,105.837 401.5,107.5C 398.933,107.279 396.599,106.612 394.5,105.5 Z"/></g>
<g><path style="opacity:0.106" fill="#ffcccb" d="M 334.5,107.5 C 334.573,109.027 333.906,110.027 332.5,110.5C 332.427,108.973 333.094,107.973 334.5,107.5 Z"/></g>
<g><path style="opacity:0.004" fill="#ffecec" d="M 406.5,110.5 C 408.5,110.5 409.5,111.5 409.5,113.5C 408.167,112.833 407.167,111.833 406.5,110.5 Z"/></g>
<g><path style="opacity:0.018" fill="#ffe3e2" d="M 331.5,112.5 C 331.204,114.403 330.537,116.07 329.5,117.5C 329.12,115.302 329.787,113.635 331.5,112.5 Z"/></g>
<g><path style="opacity:0.396" fill="#ffaba5" d="M 409.5,113.5 C 411.262,114.262 412.262,115.596 412.5,117.5C 410.738,116.738 409.738,115.404 409.5,113.5 Z"/></g>
<g><path style="opacity:0.976" fill="#ef3833" d="M 369.5,104.5 C 370.5,106.167 371.833,107.5 373.5,108.5C 373.668,111.051 374.668,111.718 376.5,110.5C 378.027,110.573 379.027,109.906 379.5,108.5C 379.842,107.662 380.508,107.328 381.5,107.5C 385.221,107.089 388.888,106.422 392.5,105.5C 393.167,105.5 393.833,105.5 394.5,105.5C 396.599,106.612 398.933,107.279 401.5,107.5C 403.674,107.75 405.341,108.75 406.5,110.5C 407.167,111.833 408.167,112.833 409.5,113.5C 409.738,115.404 410.738,116.738 412.5,117.5C 413.222,117.918 413.722,118.584 414,119.5C 414.667,126.5 414.667,133.5 414,140.5C 413.623,141.942 412.79,142.942 411.5,143.5C 409.167,145.167 407.167,147.167 405.5,149.5C 405.5,150.167 405.167,150.5 404.5,150.5C 402.973,150.427 401.973,151.094 401.5,152.5C 399.973,152.427 398.973,153.094 398.5,154.5C 398.5,155.167 398.167,155.5 397.5,155.5C 395.576,155.711 395.243,156.377 396.5,157.5C 396.427,159.027 397.094,160.027 398.5,160.5C 398.427,162.027 399.094,163.027 400.5,163.5C 400.427,165.027 401.094,166.027 402.5,166.5C 404.341,168.849 405.674,171.515 406.5,174.5C 406.402,176.553 407.069,178.22 408.5,179.5C 408.259,181.898 408.926,183.898 410.5,185.5C 410.294,188.495 410.96,191.162 412.5,193.5C 413.918,198.766 414.585,204.266 414.5,210C 414.498,213.352 414.165,216.518 413.5,219.5C 411.804,225.302 410.47,231.302 409.5,237.5C 407.597,240.53 406.263,243.863 405.5,247.5C 405.34,249.153 404.674,250.486 403.5,251.5C 401.75,252.659 400.75,254.326 400.5,256.5C 399.66,258.853 398.326,260.853 396.5,262.5C 395.094,262.973 394.427,263.973 394.5,265.5C 392.738,266.262 391.738,267.596 391.5,269.5C 391.5,270.167 391.167,270.5 390.5,270.5C 389.5,270.833 388.833,271.5 388.5,272.5C 387.094,272.973 386.427,273.973 386.5,275.5C 386.167,276.5 385.5,277.167 384.5,277.5C 378.558,281.773 373.224,286.773 368.5,292.5C 367.5,292.833 366.833,293.5 366.5,294.5C 365.167,295.167 364.167,296.167 363.5,297.5C 358.833,302.833 353.833,307.833 348.5,312.5C 342.892,316.439 337.892,321.106 333.5,326.5C 332.5,326.833 331.833,327.5 331.5,328.5C 330.167,329.167 329.167,330.167 328.5,331.5C 323.167,337.5 317.5,343.167 311.5,348.5C 306.56,351.77 302.227,355.77 298.5,360.5C 296.167,362.167 294.167,364.167 292.5,366.5C 291.5,366.833 290.833,367.5 290.5,368.5C 285.5,374.167 280.167,379.5 274.5,384.5C 270.229,387.101 266.563,390.434 263.5,394.5C 263.5,395.167 263.167,395.5 262.5,395.5C 260.847,395.66 259.514,396.326 258.5,397.5C 257.609,398.11 256.609,398.443 255.5,398.5C 250.729,398.462 246.062,397.796 241.5,396.5C 240.738,394.738 239.404,393.738 237.5,393.5C 236.5,393.167 235.833,392.5 235.5,391.5C 235.167,390.5 234.5,389.833 233.5,389.5C 231.833,387.167 229.833,385.167 227.5,383.5C 224.437,379.434 220.771,376.101 216.5,373.5C 213.5,371.167 210.833,368.5 208.5,365.5C 208.167,364.5 207.5,363.833 206.5,363.5C 202.441,358.438 197.774,354.105 192.5,350.5C 189.5,348.167 186.833,345.5 184.5,342.5C 184.167,341.5 183.5,340.833 182.5,340.5C 179.679,338.288 176.345,337.288 172.5,337.5C 172.167,337.5 171.833,337.5 171.5,337.5C 170.365,335.787 168.698,335.12 166.5,335.5C 165.508,335.672 164.842,335.338 164.5,334.5C 163.089,332.086 161.089,330.419 158.5,329.5C 158.573,327.973 157.906,326.973 156.5,326.5C 154.026,324.102 152.692,321.102 152.5,317.5C 153.691,312.531 152.024,309.197 147.5,307.5C 145.833,306.5 144.5,305.167 143.5,303.5C 142.5,301.833 141.167,300.5 139.5,299.5C 139.027,298.094 138.027,297.427 136.5,297.5C 134.833,298.5 133.5,299.833 132.5,301.5C 128.98,306.182 124.647,310.016 119.5,313C 116.137,313.927 113.137,313.427 110.5,311.5C 109.738,309.738 108.404,308.738 106.5,308.5C 104.167,306.833 102.167,304.833 100.5,302.5C 100.167,301.5 99.5,300.833 98.5,300.5C 98.1667,299.5 97.5,298.833 96.5,298.5C 94.7607,295.757 92.4274,293.757 89.5,292.5C 89.2624,290.596 88.2624,289.262 86.5,288.5C 85.7784,288.082 85.2784,287.416 85,286.5C 84.3333,282.167 84.3333,277.833 85,273.5C 85.2784,272.584 85.7784,271.918 86.5,271.5C 88.2624,270.738 89.2624,269.404 89.5,267.5C 91.4044,267.262 92.7377,266.262 93.5,264.5C 96.7871,263.839 100.12,263.339 103.5,263C 102.837,261.482 101.837,260.315 100.5,259.5C 99.0937,259.027 98.427,258.027 98.5,256.5C 98.573,254.973 97.9063,253.973 96.5,253.5C 95.3263,252.486 94.6596,251.153 94.5,249.5C 94.0075,247.181 93.0075,245.181 91.5,243.5C 90.0687,242.22 89.4021,240.553 89.5,238.5C 88.4565,233.645 87.1231,228.978 85.5,224.5C 84.5084,217.352 84.175,210.019 84.5,202.5C 85.5629,198.361 86.2296,194.028 86.5,189.5C 86.2322,187.901 86.5655,186.568 87.5,185.5C 89.2132,184.365 89.8799,182.698 89.5,180.5C 90.3764,176.418 92.0431,172.751 94.5,169.5C 95.9063,169.027 96.573,168.027 96.5,166.5C 97.6737,165.486 98.3404,164.153 98.5,162.5C 99.9063,162.027 100.573,161.027 100.5,159.5C 102.587,158.415 103.92,156.749 104.5,154.5C 105.906,154.027 106.573,153.027 106.5,151.5C 106.833,150.5 107.5,149.833 108.5,149.5C 109.5,149.167 110.167,148.5 110.5,147.5C 111.5,147.167 112.167,146.5 112.5,145.5C 113.5,145.167 114.167,144.5 114.5,143.5C 117.427,142.243 119.761,140.243 121.5,137.5C 123.404,137.262 124.738,136.262 125.5,134.5C 125.842,133.662 126.508,133.328 127.5,133.5C 129.027,133.573 130.027,132.906 130.5,131.5C 130.842,130.662 131.508,130.328 132.5,130.5C 134.027,130.573 135.027,129.906 135.5,128.5C 135.842,127.662 136.508,127.328 137.5,127.5C 139.553,127.598 141.22,126.931 142.5,125.5C 142.842,124.662 143.508,124.328 144.5,124.5C 149.165,123.943 153.498,122.61 157.5,120.5C 170.419,118.069 183.419,117.902 196.5,120C 199.104,120.39 201.438,121.224 203.5,122.5C 206.215,124.072 209.215,125.072 212.5,125.5C 213.78,126.931 215.447,127.598 217.5,127.5C 219.819,127.992 221.819,128.992 223.5,130.5C 223.821,132.048 224.821,132.715 226.5,132.5C 228.853,133.34 230.853,134.674 232.5,136.5C 232.973,137.906 233.973,138.573 235.5,138.5C 236.5,138.833 237.167,139.5 237.5,140.5C 238.262,142.262 239.596,143.262 241.5,143.5C 243.833,145.167 245.833,147.167 247.5,149.5C 250.329,155.819 252.996,155.486 255.5,148.5C 256.5,146.833 257.833,145.5 259.5,144.5C 262.089,143.581 264.089,141.914 265.5,139.5C 267.404,139.262 268.738,138.262 269.5,136.5C 269.5,135.833 269.833,135.5 270.5,135.5C 272.027,135.573 273.027,134.906 273.5,133.5C 275.027,133.573 276.027,132.906 276.5,131.5C 280.416,128.71 284.749,126.71 289.5,125.5C 293.162,125.277 296.495,124.277 299.5,122.5C 302.219,121.087 305.219,120.42 308.5,120.5C 315.913,121.128 322.913,120.461 329.5,118.5C 329.5,118.167 329.5,117.833 329.5,117.5C 330.537,116.07 331.204,114.403 331.5,112.5C 331.328,111.508 331.662,110.842 332.5,110.5C 333.906,110.027 334.573,109.027 334.5,107.5C 334.833,106.5 335.5,105.833 336.5,105.5C 338.404,105.262 339.738,104.262 340.5,102.5C 342.153,102.34 343.486,101.674 344.5,100.5C 350.653,99.3467 356.986,99.18 363.5,100C 366.106,100.792 368.106,102.292 369.5,104.5 Z M 189.5,128.5 C 191.607,129.468 193.941,129.802 196.5,129.5C 199.146,131.253 202.146,132.253 205.5,132.5C 209.333,134.556 213.333,136.222 217.5,137.5C 217.973,138.906 218.973,139.573 220.5,139.5C 220.842,140.338 221.508,140.672 222.5,140.5C 222.973,141.906 223.973,142.573 225.5,142.5C 226.29,143.401 227.29,144.068 228.5,144.5C 228.973,145.906 229.973,146.573 231.5,146.5C 232.167,147.833 233.167,148.833 234.5,149.5C 236.167,151.5 237.833,153.5 239.5,155.5C 238.167,155.5 236.833,155.5 235.5,155.5C 232.756,154.509 230.089,154.843 227.5,156.5C 222.943,157.782 218.943,160.115 215.5,163.5C 211.69,159.335 207.024,157.002 201.5,156.5C 195.5,153.833 189.5,153.833 183.5,156.5C 182.833,156.5 182.167,156.5 181.5,156.5C 178.848,156.41 176.515,157.076 174.5,158.5C 172.181,158.992 170.181,159.992 168.5,161.5C 166.973,161.427 165.973,162.094 165.5,163.5C 162.911,164.419 160.911,166.086 159.5,168.5C 158.167,168.5 157.5,169.167 157.5,170.5C 156.5,170.833 155.833,171.5 155.5,172.5C 153.738,173.262 152.738,174.596 152.5,176.5C 151.662,176.842 151.328,177.508 151.5,178.5C 150.094,178.973 149.427,179.973 149.5,181.5C 149.5,181.833 149.5,182.167 149.5,182.5C 147.896,183.287 147.229,184.62 147.5,186.5C 147.5,187.167 147.5,187.833 147.5,188.5C 145.951,193.631 144.951,198.964 144.5,204.5C 142.973,204.427 141.973,205.094 141.5,206.5C 140.5,206.833 139.833,207.5 139.5,208.5C 138.167,208.5 137.5,209.167 137.5,210.5C 136.094,210.973 135.427,211.973 135.5,213.5C 134.662,213.842 134.328,214.508 134.5,215.5C 133.073,217.148 132.24,219.148 132,221.5C 131.186,226.02 131.353,230.354 132.5,234.5C 132.692,238.102 134.026,241.102 136.5,243.5C 136.427,245.027 137.094,246.027 138.5,246.5C 138.833,247.5 139.5,248.167 140.5,248.5C 140.973,249.906 141.973,250.573 143.5,250.5C 143.973,251.906 144.973,252.573 146.5,252.5C 147.287,254.104 148.62,254.771 150.5,254.5C 153.171,256.118 156.171,256.785 159.5,256.5C 163.195,257.233 166.862,257.566 170.5,257.5C 169.662,257.842 169.328,258.508 169.5,259.5C 167.896,260.287 167.229,261.62 167.5,263.5C 167.5,263.833 167.5,264.167 167.5,264.5C 165.926,266.102 165.259,268.102 165.5,270.5C 164.28,275.178 164.28,280.012 165.5,285C 165.138,286.434 164.472,287.601 163.5,288.5C 160.5,289.5 158.5,291.5 157.5,294.5C 156.094,294.973 155.427,295.973 155.5,297.5C 154.542,297.953 153.708,298.619 153,299.5C 151.223,297.21 149.056,295.543 146.5,294.5C 145.833,293.833 145.167,293.167 144.5,292.5C 144.833,290.5 145.167,288.5 145.5,286.5C 146.365,283.9 147.032,281.233 147.5,278.5C 147.48,277.274 147.147,276.274 146.5,275.5C 146.539,272.911 145.539,270.911 143.5,269.5C 138.442,262.883 131.775,260.716 123.5,263C 121.934,263.608 120.6,264.442 119.5,265.5C 118.5,265.5 117.5,265.5 116.5,265.5C 115.581,262.911 113.914,260.911 111.5,259.5C 111.262,257.596 110.262,256.262 108.5,255.5C 108.573,253.973 107.906,252.973 106.5,252.5C 106.573,250.973 105.906,249.973 104.5,249.5C 103.341,245.849 101.674,242.515 99.5,239.5C 99.5979,237.447 98.9313,235.78 97.5,234.5C 97.8799,232.302 97.2132,230.635 95.5,229.5C 95.5,229.167 95.5,228.833 95.5,228.5C 95.7847,225.171 95.1181,222.171 93.5,219.5C 93.5,213.167 93.5,206.833 93.5,200.5C 95.0114,197.456 95.678,194.122 95.5,190.5C 95.5,190.167 95.5,189.833 95.5,189.5C 97.2132,188.365 97.8799,186.698 97.5,184.5C 104.838,169.163 114.838,155.829 127.5,144.5C 128.167,144.5 128.5,144.167 128.5,143.5C 130.027,143.573 131.027,142.906 131.5,141.5C 132.71,141.068 133.71,140.401 134.5,139.5C 136.027,139.573 137.027,138.906 137.5,137.5C 139.38,137.771 140.713,137.104 141.5,135.5C 142.492,135.672 143.158,135.338 143.5,134.5C 145.553,134.598 147.22,133.931 148.5,132.5C 151.854,132.253 154.854,131.253 157.5,129.5C 158.167,129.5 158.833,129.5 159.5,129.5C 169.476,128.668 179.476,128.334 189.5,128.5 Z M 331.5,133.5 C 334.117,138.114 337.117,142.447 340.5,146.5C 342.216,154.21 346.549,159.877 353.5,163.5C 354.026,165.23 355.026,166.564 356.5,167.5C 356.5,168.833 357.167,169.5 358.5,169.5C 362.189,174.572 366.856,175.572 372.5,172.5C 374.027,172.573 375.027,171.906 375.5,170.5C 379.221,168.646 382.554,166.313 385.5,163.5C 386.833,163.167 388.167,162.833 389.5,162.5C 390.475,164.795 391.808,166.795 393.5,168.5C 393.427,170.027 394.094,171.027 395.5,171.5C 395.229,173.38 395.896,174.713 397.5,175.5C 397.893,177.284 398.559,178.95 399.5,180.5C 399.402,182.553 400.069,184.22 401.5,185.5C 401.56,188.341 402.226,191.007 403.5,193.5C 404.786,203.835 404.786,214.169 403.5,224.5C 403.5,225.167 403.5,225.833 403.5,226.5C 401.926,228.102 401.259,230.102 401.5,232.5C 401.5,233.167 401.5,233.833 401.5,234.5C 399.896,235.287 399.229,236.62 399.5,238.5C 399.5,238.833 399.5,239.167 399.5,239.5C 397.896,240.287 397.229,241.62 397.5,243.5C 395.896,244.287 395.229,245.62 395.5,247.5C 394.662,247.842 394.328,248.508 394.5,249.5C 393.094,249.973 392.427,250.973 392.5,252.5C 391.662,252.842 391.328,253.508 391.5,254.5C 390.094,254.973 389.427,255.973 389.5,257.5C 387.738,258.262 386.738,259.596 386.5,261.5C 384.413,262.585 383.08,264.251 382.5,266.5C 381.833,266.5 381.5,266.833 381.5,267.5C 376.167,272.167 371.167,277.167 366.5,282.5C 365.167,282.5 364.5,283.167 364.5,284.5C 362.167,284.833 360.833,286.167 360.5,288.5C 359.167,288.5 358.5,289.167 358.5,290.5C 348.887,298.445 339.887,307.111 331.5,316.5C 330.167,316.5 329.5,317.167 329.5,318.5C 327.167,318.833 325.833,320.167 325.5,322.5C 324.167,322.5 323.5,323.167 323.5,324.5C 320.5,325.5 318.5,327.5 317.5,330.5C 311.892,334.439 306.892,339.106 302.5,344.5C 299.167,347.167 296.167,350.167 293.5,353.5C 291.5,353.5 290.5,354.5 290.5,356.5C 284.224,361.107 278.557,366.441 273.5,372.5C 268.167,377.167 263.167,382.167 258.5,387.5C 257.508,387.328 256.842,387.662 256.5,388.5C 252.833,389.833 249.167,389.833 245.5,388.5C 245.5,387.833 245.167,387.5 244.5,387.5C 241.105,383.102 237.105,379.436 232.5,376.5C 230.5,373.833 228.167,371.5 225.5,369.5C 224.833,368.167 223.833,367.167 222.5,366.5C 220.431,363.427 217.764,361.094 214.5,359.5C 214.167,357.167 212.833,355.833 210.5,355.5C 207.167,351.5 203.5,347.833 199.5,344.5C 197.523,342.186 195.523,339.853 193.5,337.5C 195.184,336.85 196.517,335.85 197.5,334.5C 200.216,334.614 202.216,333.614 203.5,331.5C 203.414,330.504 203.748,329.671 204.5,329C 206.058,328.79 207.391,328.29 208.5,327.5C 210.354,326.759 212.021,325.759 213.5,324.5C 214.222,325.551 215.222,326.218 216.5,326.5C 217.058,327.79 218.058,328.623 219.5,329C 224.02,329.814 228.354,329.647 232.5,328.5C 235.206,328.312 237.539,327.312 239.5,325.5C 240.5,328.5 242.5,330.5 245.5,331.5C 246.78,332.931 248.447,333.598 250.5,333.5C 254.5,334.833 258.5,334.833 262.5,333.5C 264.38,333.771 265.713,333.104 266.5,331.5C 268.38,331.771 269.713,331.104 270.5,329.5C 272.027,329.573 273.027,328.906 273.5,327.5C 274.391,328.11 275.391,328.443 276.5,328.5C 277.262,330.262 278.596,331.262 280.5,331.5C 280.842,332.338 281.508,332.672 282.5,332.5C 285.695,334.03 289.195,334.696 293,334.5C 297.112,334.651 300.946,333.984 304.5,332.5C 305.492,332.672 306.158,332.338 306.5,331.5C 308.38,331.771 309.713,331.104 310.5,329.5C 320.132,325.868 326.798,319.202 330.5,309.5C 331.338,309.158 331.672,308.492 331.5,307.5C 332.906,307.027 333.573,306.027 333.5,304.5C 334.338,304.158 334.672,303.492 334.5,302.5C 335.234,301.122 335.901,299.622 336.5,298C 336.05,295.467 335.05,293.3 333.5,291.5C 333.167,289.167 331.833,287.833 329.5,287.5C 327.509,285.512 326.175,283.178 325.5,280.5C 325.741,278.102 325.074,276.102 323.5,274.5C 323.262,272.596 322.262,271.262 320.5,270.5C 320.5,269.167 319.833,268.5 318.5,268.5C 316.008,265.325 312.674,263.659 308.5,263.5C 302.861,262.034 297.194,262.367 291.5,264.5C 290.702,264.043 290.369,263.376 290.5,262.5C 291.715,258.967 291.715,255.301 290.5,251.5C 290.433,250.041 290.766,248.708 291.5,247.5C 293.435,246.85 295.435,246.517 297.5,246.5C 298.035,248.446 299.368,249.446 301.5,249.5C 301.833,249.5 302.167,249.5 302.5,249.5C 303.99,251.28 305.99,251.946 308.5,251.5C 312.733,252.794 317.066,252.794 321.5,251.5C 323.898,251.741 325.898,251.074 327.5,249.5C 328.492,249.672 329.158,249.338 329.5,248.5C 331.38,248.771 332.713,248.104 333.5,246.5C 342.777,240.293 349.444,231.959 353.5,221.5C 354.94,220.054 355.607,218.221 355.5,216C 355.486,214.615 355.152,213.449 354.5,212.5C 354.672,211.508 354.338,210.842 353.5,210.5C 353.573,208.973 352.906,207.973 351.5,207.5C 351.027,206.094 350.027,205.427 348.5,205.5C 348.027,204.094 347.027,203.427 345.5,203.5C 345.167,203.5 344.833,203.5 344.5,203.5C 343.194,202.533 342.527,201.199 342.5,199.5C 343.16,198.036 343.493,196.369 343.5,194.5C 343.684,191.795 343.017,189.462 341.5,187.5C 341.573,185.973 340.906,184.973 339.5,184.5C 337.272,181.55 334.272,179.884 330.5,179.5C 326.5,176.833 322.5,176.833 318.5,179.5C 318.167,179.5 317.833,179.5 317.5,179.5C 315.973,179.427 314.973,180.094 314.5,181.5C 309.569,183.93 305.735,187.596 303,192.5C 302.536,191.906 302.369,191.239 302.5,190.5C 302.771,188.62 302.104,187.287 300.5,186.5C 300.167,184.167 298.833,182.833 296.5,182.5C 295.089,180.461 293.089,179.461 290.5,179.5C 286.5,176.833 282.5,176.833 278.5,179.5C 278.167,179.5 277.833,179.5 277.5,179.5C 275.973,179.427 274.973,180.094 274.5,181.5C 273.761,181.631 273.094,181.464 272.5,181C 273.817,178.063 273.817,175.23 272.5,172.5C 272.443,171.391 272.11,170.391 271.5,169.5C 271.573,167.973 270.906,166.973 269.5,166.5C 269.5,165.167 268.833,164.5 267.5,164.5C 265.685,161.593 263.019,160.259 259.5,160.5C 259.167,159.833 258.833,159.167 258.5,158.5C 260.262,157.738 261.262,156.404 261.5,154.5C 262.833,154.5 263.5,153.833 263.5,152.5C 266.582,150.628 269.249,148.295 271.5,145.5C 273.027,145.573 274.027,144.906 274.5,143.5C 282.173,138.164 290.506,134.164 299.5,131.5C 301.898,131.741 303.898,131.074 305.5,129.5C 310.534,129.664 315.534,129.331 320.5,128.5C 325.255,128.286 328.922,129.952 331.5,133.5 Z"/></g>
<g><path style="opacity:0.125" fill="#fdbcb9" d="M 373.5,108.5 C 374.5,109.167 375.5,109.833 376.5,110.5C 374.668,111.718 373.668,111.051 373.5,108.5 Z"/></g>
<g><path style="opacity:0.302" fill="#fca4a3" d="M 379.5,108.5 C 379.027,109.906 378.027,110.573 376.5,110.5C 376.973,109.094 377.973,108.427 379.5,108.5 Z"/></g>
<g><path style="opacity:1" fill="#fed9e6" d="M 347.5,107.5 C 353.072,106.99 358.405,107.823 363.5,110C 367.697,114.224 371.03,119.058 373.5,124.5C 377.46,120.038 382.126,116.538 387.5,114C 401.874,113.373 408.374,120.207 407,134.5C 405.262,138.241 402.762,141.408 399.5,144C 389.167,151 378.833,158 368.5,165C 367.5,165.667 366.5,165.667 365.5,165C 357.546,154.924 349.712,144.757 342,134.5C 334.5,123.431 336.333,114.431 347.5,107.5 Z"/></g>
<g><path style="opacity:0.082" fill="#fcc1c0" d="M 329.5,118.5 C 322.913,120.461 315.913,121.128 308.5,120.5C 315.4,119.801 322.4,119.134 329.5,118.5 Z"/></g>
<g><path style="opacity:0.02" fill="#ffe2e1" d="M 203.5,122.5 C 206.916,122.528 209.916,123.528 212.5,125.5C 209.215,125.072 206.215,124.072 203.5,122.5 Z"/></g>
<g><path style="opacity:0.435" fill="#fea59e" d="M 157.5,120.5 C 153.498,122.61 149.165,123.943 144.5,124.5C 148.491,122.394 152.824,121.061 157.5,120.5 Z"/></g>
<g><path style="opacity:0.278" fill="#fdaea9" d="M 299.5,122.5 C 296.495,124.277 293.162,125.277 289.5,125.5C 292.505,123.723 295.838,122.723 299.5,122.5 Z"/></g>
<g><path style="opacity:0.051" fill="#ffd3d2" d="M 142.5,125.5 C 141.22,126.931 139.553,127.598 137.5,127.5C 138.78,126.069 140.447,125.402 142.5,125.5 Z"/></g>
<g><path style="opacity:0.018" fill="#ffe5e3" d="M 212.5,125.5 C 214.553,125.402 216.22,126.069 217.5,127.5C 215.447,127.598 213.78,126.931 212.5,125.5 Z"/></g>
<g><path style="opacity:0.02" fill="#fff0ed" d="M 189.5,128.5 C 179.476,128.334 169.476,128.668 159.5,129.5C 160.609,128.71 161.942,128.21 163.5,128C 172.343,127.176 181.01,127.343 189.5,128.5 Z"/></g>
<g><path style="opacity:0.106" fill="#fdc8c1" d="M 331.5,133.5 C 328.922,129.952 325.255,128.286 320.5,128.5C 315.534,129.331 310.534,129.664 305.5,129.5C 313.738,126.935 322.071,126.935 330.5,129.5C 331.246,130.736 331.579,132.07 331.5,133.5 Z"/></g>
<g><path style="opacity:0.231" fill="#fdbbb7" d="M 135.5,128.5 C 135.027,129.906 134.027,130.573 132.5,130.5C 132.973,129.094 133.973,128.427 135.5,128.5 Z"/></g>
<g><path style="opacity:0.482" fill="#ffa99f" d="M 196.5,129.5 C 199.916,129.528 202.916,130.528 205.5,132.5C 202.146,132.253 199.146,131.253 196.5,129.5 Z"/></g>
<g><path style="opacity:0.013" fill="#ffede9" d="M 305.5,129.5 C 303.898,131.074 301.898,131.741 299.5,131.5C 301.102,129.926 303.102,129.259 305.5,129.5 Z"/></g>
<g><path style="opacity:0.043" fill="#ffe0d8" d="M 157.5,129.5 C 154.854,131.253 151.854,132.253 148.5,132.5C 151.084,130.528 154.084,129.528 157.5,129.5 Z"/></g>
<g><path style="opacity:0.478" fill="#ffa095" d="M 223.5,130.5 C 224.71,130.932 225.71,131.599 226.5,132.5C 224.821,132.715 223.821,132.048 223.5,130.5 Z"/></g>
<g><path style="opacity:0.329" fill="#fdaca7" d="M 130.5,131.5 C 130.027,132.906 129.027,133.573 127.5,133.5C 127.973,132.094 128.973,131.427 130.5,131.5 Z"/></g>
<g><path style="opacity:0.192" fill="#fdc8c5" d="M 276.5,131.5 C 276.027,132.906 275.027,133.573 273.5,133.5C 273.973,132.094 274.973,131.427 276.5,131.5 Z"/></g>
<g><path style="opacity:0.022" fill="#feeae8" d="M 148.5,132.5 C 147.22,133.931 145.553,134.598 143.5,134.5C 144.78,133.069 146.447,132.402 148.5,132.5 Z"/></g>
<g><path style="opacity:0.208" fill="#febfbb" d="M 273.5,133.5 C 273.027,134.906 272.027,135.573 270.5,135.5C 270.973,134.094 271.973,133.427 273.5,133.5 Z"/></g>
<g><path style="opacity:0.133" fill="#fed0ce" d="M 125.5,134.5 C 124.738,136.262 123.404,137.262 121.5,137.5C 122.262,135.738 123.596,134.738 125.5,134.5 Z"/></g>
<g><path style="opacity:0.018" fill="#fff2ef" d="M 141.5,135.5 C 140.713,137.104 139.38,137.771 137.5,137.5C 138.514,136.326 139.847,135.66 141.5,135.5 Z"/></g>
<g><path style="opacity:0.004" fill="#ffe3e2" d="M 232.5,136.5 C 234.027,136.427 235.027,137.094 235.5,138.5C 233.973,138.573 232.973,137.906 232.5,136.5 Z"/></g>
<g><path style="opacity:0.263" fill="#fea29b" d="M 269.5,136.5 C 268.738,138.262 267.404,139.262 265.5,139.5C 266.262,137.738 267.596,136.738 269.5,136.5 Z"/></g>
<g><path style="opacity:0.004" fill="#fff4ef" d="M 137.5,137.5 C 137.027,138.906 136.027,139.573 134.5,139.5C 134.973,138.094 135.973,137.427 137.5,137.5 Z"/></g>
<g><path style="opacity:0.059" fill="#ffd0cd" d="M 217.5,137.5 C 219.027,137.427 220.027,138.094 220.5,139.5C 218.973,139.573 217.973,138.906 217.5,137.5 Z"/></g>
<g><path style="opacity:0.306" fill="#fea69f" d="M 121.5,137.5 C 119.761,140.243 117.427,142.243 114.5,143.5C 116.239,140.757 118.573,138.757 121.5,137.5 Z"/></g>
<g><path style="opacity:0.004" fill="#ffdbd9" d="M 237.5,140.5 C 239.404,140.738 240.738,141.738 241.5,143.5C 239.596,143.262 238.262,142.262 237.5,140.5 Z"/></g>
<g><path style="opacity:0.075" fill="#ffcbc2" d="M 222.5,140.5 C 224.027,140.427 225.027,141.094 225.5,142.5C 223.973,142.573 222.973,141.906 222.5,140.5 Z"/></g>
<g><path style="opacity:0.02" fill="#fff2ef" d="M 131.5,141.5 C 131.027,142.906 130.027,143.573 128.5,143.5C 128.973,142.094 129.973,141.427 131.5,141.5 Z"/></g>
<g><path style="opacity:0.298" fill="#fda59b" d="M 265.5,139.5 C 264.089,141.914 262.089,143.581 259.5,144.5C 260.911,142.086 262.911,140.419 265.5,139.5 Z"/></g>
<g><path style="opacity:0.09" fill="#ffdbdb" d="M 114.5,143.5 C 114.167,144.5 113.5,145.167 112.5,145.5C 112.5,144.167 113.167,143.5 114.5,143.5 Z"/></g>
<g><path style="opacity:0.235" fill="#fdb5a8" d="M 228.5,144.5 C 230.027,144.427 231.027,145.094 231.5,146.5C 229.973,146.573 228.973,145.906 228.5,144.5 Z"/></g>
<g><path style="opacity:0.004" fill="#feefea" d="M 274.5,143.5 C 274.027,144.906 273.027,145.573 271.5,145.5C 271.973,144.094 272.973,143.427 274.5,143.5 Z"/></g>
<g><path style="opacity:0.129" fill="#fbd6d2" d="M 112.5,145.5 C 112.167,146.5 111.5,147.167 110.5,147.5C 110.5,146.167 111.167,145.5 112.5,145.5 Z"/></g>
<g><path style="opacity:0.012" fill="#fee3e2" d="M 411.5,143.5 C 410.5,146.5 408.5,148.5 405.5,149.5C 407.167,147.167 409.167,145.167 411.5,143.5 Z"/></g>
<g><path style="opacity:0.114" fill="#ffdddd" d="M 110.5,147.5 C 110.167,148.5 109.5,149.167 108.5,149.5C 108.5,148.167 109.167,147.5 110.5,147.5 Z"/></g>
<g><path style="opacity:0.247" fill="#ffb8b3" d="M 234.5,149.5 C 237.5,150.5 239.5,152.5 240.5,155.5C 240.167,155.5 239.833,155.5 239.5,155.5C 237.833,153.5 236.167,151.5 234.5,149.5 Z"/></g>
<g><path style="opacity:0.008" fill="#ffeeee" d="M 404.5,150.5 C 404.027,151.906 403.027,152.573 401.5,152.5C 401.973,151.094 402.973,150.427 404.5,150.5 Z"/></g>
<g><path style="opacity:0.082" fill="#feb8b4" d="M 255.5,148.5 C 252.996,155.486 250.329,155.819 247.5,149.5C 248.794,150.29 249.961,151.29 251,152.5C 252.371,150.959 253.871,149.625 255.5,148.5 Z"/></g>
<g><path style="opacity:0.557" fill="#fff2ea" d="M 340.5,146.5 C 345.186,151.858 349.519,157.525 353.5,163.5C 346.549,159.877 342.216,154.21 340.5,146.5 Z"/></g>
<g><path style="opacity:0.176" fill="#fdbbb5" d="M 106.5,151.5 C 106.573,153.027 105.906,154.027 104.5,154.5C 104.427,152.973 105.094,151.973 106.5,151.5 Z"/></g>
<g><path style="opacity:0.004" fill="#fedcd8" d="M 263.5,152.5 C 263.5,153.833 262.833,154.5 261.5,154.5C 261.833,153.5 262.5,152.833 263.5,152.5 Z"/></g>
<g><path style="opacity:0.016" fill="#ffe9e9" d="M 401.5,152.5 C 401.027,153.906 400.027,154.573 398.5,154.5C 398.973,153.094 399.973,152.427 401.5,152.5 Z"/></g>
<g><path style="opacity:0.278" fill="#fdb3ab" d="M 201.5,156.5 C 195.5,156.5 189.5,156.5 183.5,156.5C 189.5,153.833 195.5,153.833 201.5,156.5 Z"/></g>
<g><path style="opacity:0.122" fill="#fdc2c0" d="M 235.5,155.5 C 232.873,156.092 230.206,156.425 227.5,156.5C 230.089,154.843 232.756,154.509 235.5,155.5 Z"/></g>
<g><path style="opacity:0.169" fill="#fbd0d0" d="M 397.5,155.5 C 397.167,156.167 396.833,156.833 396.5,157.5C 395.243,156.377 395.576,155.711 397.5,155.5 Z"/></g>
<g><path style="opacity:0.251" fill="#fdb2a3" d="M 181.5,156.5 C 179.485,157.924 177.152,158.59 174.5,158.5C 176.515,157.076 178.848,156.41 181.5,156.5 Z"/></g>
<g><path style="opacity:0.094" fill="#ffbeb8" d="M 104.5,154.5 C 103.92,156.749 102.587,158.415 100.5,159.5C 101.08,157.251 102.413,155.585 104.5,154.5 Z"/></g>
<g><path style="opacity:0.075" fill="#ffefe7" d="M 127.5,144.5 C 114.838,155.829 104.838,169.163 97.5,184.5C 103.166,167.8 113.166,154.467 127.5,144.5 Z"/></g>
<g><path style="opacity:0.039" fill="#ffcdca" d="M 258.5,158.5 C 258.833,159.167 259.167,159.833 259.5,160.5C 256.147,160.655 255.814,159.988 258.5,158.5 Z"/></g>
<g><path style="opacity:0.153" fill="#fdb5b2" d="M 396.5,157.5 C 397.906,157.973 398.573,158.973 398.5,160.5C 397.094,160.027 396.427,159.027 396.5,157.5 Z"/></g>
<g><path style="opacity:0.11" fill="#ffd3d1" d="M 100.5,159.5 C 100.573,161.027 99.9063,162.027 98.5,162.5C 98.427,160.973 99.0937,159.973 100.5,159.5 Z"/></g>
<g><path style="opacity:0.02" fill="#ffdfdc" d="M 389.5,162.5 C 388.167,162.833 386.833,163.167 385.5,163.5C 386.315,162.163 387.482,161.163 389,160.5C 389.464,161.094 389.631,161.761 389.5,162.5 Z"/></g>
<g><path style="opacity:0.29" fill="#fc9e95" d="M 168.5,161.5 C 168.027,162.906 167.027,163.573 165.5,163.5C 165.973,162.094 166.973,161.427 168.5,161.5 Z"/></g>
<g><path style="opacity:0.145" fill="#fdb7b4" d="M 398.5,160.5 C 399.906,160.973 400.573,161.973 400.5,163.5C 399.094,163.027 398.427,162.027 398.5,160.5 Z"/></g>
<g><path style="opacity:0.129" fill="#fcd8d4" d="M 98.5,162.5 C 98.3404,164.153 97.6737,165.486 96.5,166.5C 96.2291,164.62 96.8958,163.287 98.5,162.5 Z"/></g>
<g><path style="opacity:0.004" fill="#feddd7" d="M 267.5,164.5 C 268.833,164.5 269.5,165.167 269.5,166.5C 268.5,166.167 267.833,165.5 267.5,164.5 Z"/></g>
<g><path style="opacity:1" fill="#fcc1d4" d="M 183.5,165.5 C 189.509,165.334 195.509,165.501 201.5,166C 205.96,167.457 208.626,170.457 209.5,175C 207.182,182.78 205.182,190.614 203.5,198.5C 205.722,198.822 207.556,198.155 209,196.5C 213.194,189.446 216.861,182.112 220,174.5C 225.976,164.609 233.643,162.943 243,169.5C 243.667,170.833 244.333,172.167 245,173.5C 251,168.167 257,168.167 263,173.5C 263.965,183.448 259.465,187.615 249.5,186C 246.943,185.315 245.109,183.815 244,181.5C 241.461,189.298 236.628,191.631 229.5,188.5C 227.121,189.442 224.954,190.775 223,192.5C 220.197,197.28 217.03,201.78 213.5,206C 216.353,209.709 218.353,213.876 219.5,218.5C 225.632,221.979 230.465,220.645 234,214.5C 236.213,205.571 240.38,197.738 246.5,191C 250.902,189.431 252.902,190.931 252.5,195.5C 252.113,200.047 250.947,204.381 249,208.5C 246.484,216.033 248.984,219.2 256.5,218C 262.456,209.921 268.289,201.755 274,193.5C 280.118,187.318 286.452,186.985 293,192.5C 293.667,193.833 293.667,195.167 293,196.5C 289.907,197.921 287.74,200.087 286.5,203C 288.93,208.357 290.93,213.857 292.5,219.5C 295.263,219.256 297.429,217.923 299,215.5C 304.651,206.37 311.151,197.87 318.5,190C 322.833,188 327.167,188 331.5,190C 332.573,191.313 333.24,192.813 333.5,194.5C 331.167,197.167 328.833,199.833 326.5,202.5C 328.807,208.102 330.807,213.768 332.5,219.5C 335.967,218.926 338.634,217.092 340.5,214C 344.111,212.746 345.611,213.912 345,217.5C 341.507,224.981 336.674,231.481 330.5,237C 320.652,243.877 310.818,244.044 301,237.5C 299.414,235.33 298.08,232.996 297,230.5C 287.541,242.073 276.041,244.907 262.5,239C 260.3,236.766 258.467,234.266 257,231.5C 252.921,239.621 246.421,243.121 237.5,242C 233.787,239.075 231.787,235.242 231.5,230.5C 227.335,237.344 221.335,241.344 213.5,242.5C 208.397,242.534 204.897,240.201 203,235.5C 202.667,227.833 202.333,220.167 202,212.5C 200.062,211.14 198.396,211.473 197,213.5C 194.281,224.111 189.114,233.277 181.5,241C 172.453,246.53 162.786,247.863 152.5,245C 141.046,237.957 138.546,228.457 145,216.5C 147.548,212.64 151.048,211.14 155.5,212C 157.515,219.845 162.515,222.845 170.5,221C 176.799,219.037 181.632,215.203 185,209.5C 188.833,200.5 192.667,191.5 196.5,182.5C 189.71,180.056 184.21,181.723 180,187.5C 177.419,192.89 178.252,197.556 182.5,201.5C 179.458,211.524 172.791,215.024 162.5,212C 155.856,207.174 153.689,200.674 156,192.5C 160.428,178.571 169.595,169.571 183.5,165.5 Z"/></g>
<g><path style="opacity:0.078" fill="#ffd4d3" d="M 400.5,163.5 C 401.906,163.973 402.573,164.973 402.5,166.5C 401.094,166.027 400.427,165.027 400.5,163.5 Z"/></g>
<g><path style="opacity:0.118" fill="#ffcfcd" d="M 96.5,166.5 C 96.573,168.027 95.9063,169.027 94.5,169.5C 94.427,167.973 95.0937,166.973 96.5,166.5 Z"/></g>
<g><path style="opacity:0.086" fill="#ffcbbd" d="M 269.5,166.5 C 270.906,166.973 271.573,167.973 271.5,169.5C 270.094,169.027 269.427,168.027 269.5,166.5 Z"/></g>
<g><path style="opacity:0.004" fill="#fdd5d4" d="M 356.5,167.5 C 357.5,167.833 358.167,168.5 358.5,169.5C 357.167,169.5 356.5,168.833 356.5,167.5 Z"/></g>
<g><path style="opacity:0.098" fill="#fecdc5" d="M 159.5,168.5 C 159.167,169.5 158.5,170.167 157.5,170.5C 157.5,169.167 158.167,168.5 159.5,168.5 Z"/></g>
<g><path style="opacity:0.004" fill="#ffe4e1" d="M 393.5,168.5 C 394.906,168.973 395.573,169.973 395.5,171.5C 394.094,171.027 393.427,170.027 393.5,168.5 Z"/></g>
<g><path style="opacity:0.004" fill="#fff2ed" d="M 375.5,170.5 C 375.027,171.906 374.027,172.573 372.5,172.5C 372.973,171.094 373.973,170.427 375.5,170.5 Z"/></g>
<g><path style="opacity:0.016" fill="#ffe8e5" d="M 272.5,172.5 C 273.817,175.23 273.817,178.063 272.5,181C 273.094,181.464 273.761,181.631 274.5,181.5C 272.98,183.529 271.98,183.529 271.5,181.5C 272.302,178.551 272.636,175.551 272.5,172.5 Z"/></g>
<g><path style="opacity:0.016" fill="#fee4e2" d="M 395.5,171.5 C 396.674,172.514 397.34,173.847 397.5,175.5C 395.896,174.713 395.229,173.38 395.5,171.5 Z"/></g>
<g><path style="opacity:0.282" fill="#ffb8aa" d="M 155.5,172.5 C 155.262,174.404 154.262,175.738 152.5,176.5C 152.738,174.596 153.738,173.262 155.5,172.5 Z"/></g>
<g><path style="opacity:0.018" fill="#fee9e9" d="M 406.5,174.5 C 407.931,175.78 408.598,177.447 408.5,179.5C 407.069,178.22 406.402,176.553 406.5,174.5 Z"/></g>
<g><path style="opacity:0.227" fill="#fcaaa4" d="M 290.5,179.5 C 286.5,179.5 282.5,179.5 278.5,179.5C 282.5,176.833 286.5,176.833 290.5,179.5 Z"/></g>
<g><path style="opacity:0.278" fill="#fca6a0" d="M 330.5,179.5 C 326.5,179.5 322.5,179.5 318.5,179.5C 322.5,176.833 326.5,176.833 330.5,179.5 Z"/></g>
<g><path style="opacity:0.078" fill="#ffc9c0" d="M 151.5,178.5 C 151.573,180.027 150.906,181.027 149.5,181.5C 149.427,179.973 150.094,178.973 151.5,178.5 Z"/></g>
<g><path style="opacity:0.243" fill="#feaea9" d="M 277.5,179.5 C 277.027,180.906 276.027,181.573 274.5,181.5C 274.973,180.094 275.973,179.427 277.5,179.5 Z"/></g>
<g><path style="opacity:0.18" fill="#fec7b4" d="M 317.5,179.5 C 317.027,180.906 316.027,181.573 314.5,181.5C 314.973,180.094 315.973,179.427 317.5,179.5 Z"/></g>
<g><path style="opacity:0.012" fill="#ffd3cf" d="M 296.5,182.5 C 298.833,182.833 300.167,184.167 300.5,186.5C 298.833,185.5 297.5,184.167 296.5,182.5 Z"/></g>
<g><path style="opacity:0.271" fill="#ffc5c3" d="M 408.5,179.5 C 409.738,181.214 410.405,183.214 410.5,185.5C 408.926,183.898 408.259,181.898 408.5,179.5 Z"/></g>
<g><path style="opacity:0.373" fill="#ffb6b0" d="M 89.5,180.5 C 89.8799,182.698 89.2132,184.365 87.5,185.5C 87.4021,183.447 88.0687,181.78 89.5,180.5 Z"/></g>
<g><path style="opacity:0.129" fill="#fdcdca" d="M 149.5,182.5 C 149.34,184.153 148.674,185.486 147.5,186.5C 147.229,184.62 147.896,183.287 149.5,182.5 Z"/></g>
<g><path style="opacity:0.055" fill="#ffd1ca" d="M 399.5,180.5 C 400.931,181.78 401.598,183.447 401.5,185.5C 400.069,184.22 399.402,182.553 399.5,180.5 Z"/></g>
<g><path style="opacity:0.014" fill="#feece8" d="M 97.5,184.5 C 97.8799,186.698 97.2132,188.365 95.5,189.5C 95.7959,187.597 96.4625,185.93 97.5,184.5 Z"/></g>
<g><path style="opacity:0.063" fill="#ffd9d1" d="M 339.5,184.5 C 340.906,184.973 341.573,185.973 341.5,187.5C 340.094,187.027 339.427,186.027 339.5,184.5 Z"/></g>
<g><path style="opacity:0.031" fill="#fedcce" d="M 300.5,186.5 C 302.104,187.287 302.771,188.62 302.5,190.5C 301.326,189.486 300.66,188.153 300.5,186.5 Z"/></g>
<g><path style="opacity:0.021" fill="#ffe2e1" d="M 410.5,185.5 C 411.768,187.905 412.435,190.572 412.5,193.5C 410.96,191.162 410.294,188.495 410.5,185.5 Z"/></g>
<g><path style="opacity:0.188" fill="#fdcac9" d="M 86.5,189.5 C 86.2296,194.028 85.5629,198.361 84.5,202.5C 84.1561,197.878 84.8227,193.545 86.5,189.5 Z"/></g>
<g><path style="opacity:0.051" fill="#ffdfd7" d="M 95.5,190.5 C 95.678,194.122 95.0114,197.456 93.5,200.5C 93.322,196.878 93.9886,193.544 95.5,190.5 Z"/></g>
<g><path style="opacity:0.275" fill="#fff4ec" d="M 342.5,199.5 C 342.527,201.199 343.194,202.533 344.5,203.5C 342.801,203.66 341.134,203.494 339.5,203C 340.636,201.855 341.636,200.688 342.5,199.5 Z"/></g>
<g><path style="opacity:0.141" fill="#fececa" d="M 147.5,188.5 C 147.38,194.259 146.38,199.592 144.5,204.5C 144.951,198.964 145.951,193.631 147.5,188.5 Z"/></g>
<g><path style="opacity:0.004" fill="#ffdfd5" d="M 345.5,203.5 C 347.027,203.427 348.027,204.094 348.5,205.5C 346.973,205.573 345.973,204.906 345.5,203.5 Z"/></g>
<g><path style="opacity:0.996" fill="#fdc7be" d="M 228.5,200.5 C 229.043,200.56 229.376,200.893 229.5,201.5C 228.058,204.05 226.892,206.716 226,209.5C 225.626,208.584 225.126,207.75 224.5,207C 226.058,204.948 227.392,202.781 228.5,200.5 Z"/></g>
<g><path style="opacity:0.259" fill="#fbb1ad" d="M 144.5,204.5 C 144.027,205.906 143.027,206.573 141.5,206.5C 141.973,205.094 142.973,204.427 144.5,204.5 Z"/></g>
<g><path style="opacity:1" fill="#ed3130" d="M 273.5,204.5 C 277.086,207.656 278.253,211.656 277,216.5C 274.487,220.212 270.987,221.378 266.5,220C 265.643,219.311 264.977,218.478 264.5,217.5C 267.263,212.963 270.263,208.63 273.5,204.5 Z"/></g>
<g><path style="opacity:1" fill="#ed302f" d="M 313.5,204.5 C 315.335,205.122 316.502,206.456 317,208.5C 319.263,217.865 315.763,221.698 306.5,220C 305.446,218.612 305.28,217.112 306,215.5C 308.51,211.805 311.01,208.138 313.5,204.5 Z"/></g>
<g><path style="opacity:0.008" fill="#ffd6d2" d="M 348.5,205.5 C 350.027,205.427 351.027,206.094 351.5,207.5C 349.973,207.573 348.973,206.906 348.5,205.5 Z"/></g>
<g><path style="opacity:0.02" fill="#ffd7d0" d="M 403.5,193.5 C 404.931,198.933 405.598,204.599 405.5,210.5C 405.7,215.437 405.033,220.104 403.5,224.5C 404.786,214.169 404.786,203.835 403.5,193.5 Z"/></g>
<g><path style="opacity:0.067" fill="#ffe4da" d="M 139.5,208.5 C 139.167,209.5 138.5,210.167 137.5,210.5C 137.5,209.167 138.167,208.5 139.5,208.5 Z"/></g>
<g><path style="opacity:0.133" fill="#fcbeb8" d="M 351.5,207.5 C 352.906,207.973 353.573,208.973 353.5,210.5C 352.094,210.027 351.427,209.027 351.5,207.5 Z"/></g>
<g><path style="opacity:0.114" fill="#ffd1c6" d="M 137.5,210.5 C 137.573,212.027 136.906,213.027 135.5,213.5C 135.427,211.973 136.094,210.973 137.5,210.5 Z"/></g>
<g><path style="opacity:0.045" fill="#ffe7e7" d="M 354.5,212.5 C 355.152,213.449 355.486,214.615 355.5,216C 355.607,218.221 354.94,220.054 353.5,221.5C 354.159,218.545 354.492,215.545 354.5,212.5 Z"/></g>
<g><path style="opacity:0.333" fill="#ffbeb6" d="M 134.5,215.5 C 132.899,221.711 132.232,228.044 132.5,234.5C 131.353,230.354 131.186,226.02 132,221.5C 132.24,219.148 133.073,217.148 134.5,215.5 Z"/></g>
<g><path style="opacity:0.018" fill="#ffd8d4" d="M 93.5,219.5 C 95.1181,222.171 95.7847,225.171 95.5,228.5C 94.3428,225.727 93.6761,222.727 93.5,219.5 Z"/></g>
<g><path style="opacity:0.022" fill="#ffe6e4" d="M 85.5,224.5 C 87.1231,228.978 88.4565,233.645 89.5,238.5C 86.9436,234.288 85.6102,229.622 85.5,224.5 Z"/></g>
<g><path style="opacity:0.086" fill="#fed5d3" d="M 413.5,219.5 C 413.714,225.964 412.381,231.964 409.5,237.5C 410.47,231.302 411.804,225.302 413.5,219.5 Z"/></g>
<g><path style="opacity:0.294" fill="#ffbcb4" d="M 403.5,226.5 C 403.741,228.898 403.074,230.898 401.5,232.5C 401.259,230.102 401.926,228.102 403.5,226.5 Z"/></g>
<g><path style="opacity:0.012" fill="#ffe1dc" d="M 95.5,229.5 C 97.2132,230.635 97.8799,232.302 97.5,234.5C 96.4625,233.07 95.7959,231.403 95.5,229.5 Z"/></g>
<g><path style="opacity:0.176" fill="#fdc1bc" d="M 401.5,234.5 C 401.34,236.153 400.674,237.486 399.5,238.5C 399.229,236.62 399.896,235.287 401.5,234.5 Z"/></g>
<g><path style="opacity:0.004" fill="#feebde" d="M 97.5,234.5 C 98.9313,235.78 99.5979,237.447 99.5,239.5C 98.0687,238.22 97.4021,236.553 97.5,234.5 Z"/></g>
<g><path style="opacity:0.145" fill="#fed1cd" d="M 399.5,239.5 C 399.34,241.153 398.674,242.486 397.5,243.5C 397.229,241.62 397.896,240.287 399.5,239.5 Z"/></g>
<g><path style="opacity:0.051" fill="#ffdcdb" d="M 409.5,237.5 C 409.128,241.297 407.794,244.63 405.5,247.5C 406.263,243.863 407.597,240.53 409.5,237.5 Z"/></g>
<g><path style="opacity:0.004" fill="#fddcd9" d="M 136.5,243.5 C 137.906,243.973 138.573,244.973 138.5,246.5C 137.094,246.027 136.427,245.027 136.5,243.5 Z"/></g>
<g><path style="opacity:0.094" fill="#fbdad9" d="M 397.5,243.5 C 397.34,245.153 396.674,246.486 395.5,247.5C 395.229,245.62 395.896,244.287 397.5,243.5 Z"/></g>
<g><path style="opacity:0.027" fill="#fee8e7" d="M 91.5,243.5 C 93.0075,245.181 94.0075,247.181 94.5,249.5C 92.461,248.089 91.461,246.089 91.5,243.5 Z"/></g>
<g><path style="opacity:0.999" fill="#fcc1d5" d="M 199.5,247.5 C 221.496,244.053 234.663,253.053 239,274.5C 244.421,264.749 251.587,256.583 260.5,250C 266.017,247.135 271.683,246.802 277.5,249C 282.937,256.132 282.603,263.132 276.5,270C 270.729,267.811 266.896,269.645 265,275.5C 261.459,283.321 260.793,291.321 263,299.5C 268.108,302.587 272.442,301.587 276,296.5C 280.222,280.579 290.388,272.746 306.5,273C 314.121,275.406 317.288,280.572 316,288.5C 314.983,293.712 312.149,297.545 307.5,300C 301.482,301.48 295.482,301.98 289.5,301.5C 290.693,303.527 292.36,305.027 294.5,306C 305.14,308.014 313.807,304.847 320.5,296.5C 324.014,294.735 325.514,295.735 325,299.5C 319.356,311.145 310.523,319.312 298.5,324C 286.382,326.272 278.715,321.439 275.5,309.5C 272.215,316.62 266.882,321.453 259.5,324C 254.265,325.466 250.099,323.966 247,319.5C 245.442,315.993 244.608,312.327 244.5,308.5C 246.642,298.751 248.975,289.085 251.5,279.5C 246.894,280.637 244.06,283.637 243,288.5C 240.39,295.329 238.39,302.329 237,309.5C 234.335,319.675 228.669,322.009 220,316.5C 219.333,313.167 219.333,309.833 220,306.5C 222.958,298.015 224.625,289.349 225,280.5C 223.333,279.167 221.667,279.167 220,280.5C 217.715,297.237 210.549,311.403 198.5,323C 188.458,329.337 178.125,330.004 167.5,325C 158.98,314.682 159.647,305.016 169.5,296C 171.695,294.627 174.029,294.294 176.5,295C 178.712,301.777 183.378,304.443 190.5,303C 202.206,298.472 209.373,289.972 212,277.5C 212.667,274.167 212.667,270.833 212,267.5C 206.186,261.795 201.186,262.462 197,269.5C 196.333,272.167 196.333,274.833 197,277.5C 202.866,281.959 202.699,286.459 196.5,291C 180.612,294.454 173.445,287.954 175,271.5C 179.085,259.247 187.252,251.247 199.5,247.5 Z"/></g>
<g><path style="opacity:0.004" fill="#ffe2d9" d="M 297.5,246.5 C 299.23,247.026 300.564,248.026 301.5,249.5C 299.368,249.446 298.035,248.446 297.5,246.5 Z"/></g>
<g><path style="opacity:0.055" fill="#ffd8ce" d="M 333.5,246.5 C 332.713,248.104 331.38,248.771 329.5,248.5C 330.514,247.326 331.847,246.66 333.5,246.5 Z"/></g>
<g><path style="opacity:0.02" fill="#fee1d8" d="M 291.5,247.5 C 290.766,248.708 290.433,250.041 290.5,251.5C 287.547,249.436 287.88,248.103 291.5,247.5 Z"/></g>
<g><path style="opacity:0.098" fill="#fbc4bd" d="M 140.5,248.5 C 142.027,248.427 143.027,249.094 143.5,250.5C 141.973,250.573 140.973,249.906 140.5,248.5 Z"/></g>
<g><path style="opacity:0.012" fill="#ffd8d6" d="M 302.5,249.5 C 304.698,249.875 306.698,250.542 308.5,251.5C 305.99,251.946 303.99,251.28 302.5,249.5 Z"/></g>
<g><path style="opacity:0.01" fill="#ffece8" d="M 327.5,249.5 C 325.898,251.074 323.898,251.741 321.5,251.5C 323.214,250.262 325.214,249.595 327.5,249.5 Z"/></g>
<g><path style="opacity:0.071" fill="#fededc" d="M 104.5,249.5 C 105.906,249.973 106.573,250.973 106.5,252.5C 105.094,252.027 104.427,251.027 104.5,249.5 Z"/></g>
<g><path style="opacity:0.169" fill="#feaea6" d="M 143.5,250.5 C 145.027,250.427 146.027,251.094 146.5,252.5C 144.973,252.573 143.973,251.906 143.5,250.5 Z"/></g>
<g><path style="opacity:0.09" fill="#fec9c3" d="M 239.5,252.5 C 240.601,251.402 241.934,251.235 243.5,252C 242.874,252.75 242.374,253.584 242,254.5C 241.292,253.619 240.458,252.953 239.5,252.5 Z"/></g>
<g><path style="opacity:0.055" fill="#ffd1cf" d="M 394.5,249.5 C 394.573,251.027 393.906,252.027 392.5,252.5C 392.427,250.973 393.094,249.973 394.5,249.5 Z"/></g>
<g><path style="opacity:0.018" fill="#fee4e1" d="M 146.5,252.5 C 148.153,252.66 149.486,253.326 150.5,254.5C 148.62,254.771 147.287,254.104 146.5,252.5 Z"/></g>
<g><path style="opacity:0.031" fill="#feedec" d="M 403.5,251.5 C 403.25,253.674 402.25,255.341 400.5,256.5C 400.75,254.326 401.75,252.659 403.5,251.5 Z"/></g>
<g><path style="opacity:0.008" fill="#ffe2e0" d="M 96.5,253.5 C 97.9063,253.973 98.573,254.973 98.5,256.5C 97.0937,256.027 96.427,255.027 96.5,253.5 Z"/></g>
<g><path style="opacity:0.094" fill="#fee0da" d="M 106.5,252.5 C 107.906,252.973 108.573,253.973 108.5,255.5C 107.094,255.027 106.427,254.027 106.5,252.5 Z"/></g>
<g><path style="opacity:0.009" fill="#ffcac1" d="M 150.5,254.5 C 155.797,255.275 161.13,255.608 166.5,255.5C 164.393,256.468 162.059,256.802 159.5,256.5C 156.171,256.785 153.171,256.118 150.5,254.5 Z"/></g>
<g><path style="opacity:0.009" fill="#fff7f6" d="M 166.5,255.5 C 168.288,255.215 169.955,255.548 171.5,256.5C 171.376,257.107 171.043,257.44 170.5,257.5C 166.862,257.566 163.195,257.233 159.5,256.5C 162.059,256.802 164.393,256.468 166.5,255.5 Z"/></g>
<g><path style="opacity:0.129" fill="#fcccc6" d="M 391.5,254.5 C 391.573,256.027 390.906,257.027 389.5,257.5C 389.427,255.973 390.094,254.973 391.5,254.5 Z"/></g>
<g><path style="opacity:0.137" fill="#fdd3cc" d="M 108.5,255.5 C 110.262,256.262 111.262,257.596 111.5,259.5C 109.738,258.738 108.738,257.404 108.5,255.5 Z"/></g>
<g><path style="opacity:0.188" fill="#fdb9b4" d="M 389.5,257.5 C 389.262,259.404 388.262,260.738 386.5,261.5C 386.738,259.596 387.738,258.262 389.5,257.5 Z"/></g>
<g><path style="opacity:0.2" fill="#fdcdc9" d="M 169.5,259.5 C 169.34,261.153 168.674,262.486 167.5,263.5C 167.229,261.62 167.896,260.287 169.5,259.5 Z"/></g>
<g><path style="opacity:0.235" fill="#fcbdbe" d="M 100.5,259.5 C 101.837,260.315 102.837,261.482 103.5,263C 100.12,263.339 96.7871,263.839 93.5,264.5C 93.6107,263.883 93.944,263.383 94.5,263C 96.8333,262.667 99.1667,262.333 101.5,262C 100.748,261.329 100.414,260.496 100.5,259.5 Z"/></g>
<g><path style="opacity:0.216" fill="#fdc4be" d="M 111.5,259.5 C 113.914,260.911 115.581,262.911 116.5,265.5C 114.086,264.089 112.419,262.089 111.5,259.5 Z"/></g>
<g><path style="opacity:0.008" fill="#ffeaea" d="M 396.5,262.5 C 396.573,264.027 395.906,265.027 394.5,265.5C 394.427,263.973 395.094,262.973 396.5,262.5 Z"/></g>
<g><path style="opacity:0.043" fill="#ffcfc8" d="M 290.5,262.5 C 290.369,263.376 290.702,264.043 291.5,264.5C 297.194,262.367 302.861,262.034 308.5,263.5C 302.044,263.232 295.711,263.899 289.5,265.5C 289.263,264.209 289.596,263.209 290.5,262.5 Z"/></g>
<g><path style="opacity:0.314" fill="#fda09d" d="M 93.5,264.5 C 92.7377,266.262 91.4044,267.262 89.5,267.5C 90.2623,265.738 91.5956,264.738 93.5,264.5 Z"/></g>
<g><path style="opacity:0.012" fill="#fdd8d6" d="M 116.5,265.5 C 117.5,265.5 118.5,265.5 119.5,265.5C 118.5,268.167 117.5,268.167 116.5,265.5 Z"/></g>
<g><path style="opacity:0.133" fill="#fcc1bc" d="M 386.5,261.5 C 385.92,263.749 384.587,265.415 382.5,266.5C 383.08,264.251 384.413,262.585 386.5,261.5 Z"/></g>
<g><path style="opacity:0.008" fill="#ffeeee" d="M 394.5,265.5 C 394.262,267.404 393.262,268.738 391.5,269.5C 391.738,267.596 392.738,266.262 394.5,265.5 Z"/></g>
<g><path style="opacity:0.004" fill="#ffe9e3" d="M 318.5,268.5 C 319.833,268.5 320.5,269.167 320.5,270.5C 319.5,270.167 318.833,269.5 318.5,268.5 Z"/></g>
<g><path style="opacity:0.255" fill="#ffb6b4" d="M 89.5,267.5 C 89.2624,269.404 88.2624,270.738 86.5,271.5C 86.7376,269.596 87.7376,268.262 89.5,267.5 Z"/></g>
<g><path style="opacity:0.188" fill="#fdb1a6" d="M 167.5,264.5 C 167.741,266.898 167.074,268.898 165.5,270.5C 165.259,268.102 165.926,266.102 167.5,264.5 Z"/></g>
<g><path style="opacity:1" fill="#fed7e4" d="M 99.5,270.5 C 102.794,270.259 105.794,271.092 108.5,273C 110.628,276.13 113.128,278.963 116,281.5C 118.853,278.948 121.353,276.115 123.5,273C 129.92,269.888 134.753,271.388 138,277.5C 138.743,280.783 138.076,283.783 136,286.5C 129.322,292.513 122.655,298.513 116,304.5C 108.08,298.585 100.747,291.918 94,284.5C 91.3272,278.021 93.1605,273.354 99.5,270.5 Z"/></g>
<g><path style="opacity:0.043" fill="#ffdbd8" d="M 143.5,269.5 C 145.539,270.911 146.539,272.911 146.5,275.5C 144.992,273.819 143.992,271.819 143.5,269.5 Z"/></g>
<g><path style="opacity:0.004" fill="#fff4f4" d="M 390.5,270.5 C 390.5,271.833 389.833,272.5 388.5,272.5C 388.833,271.5 389.5,270.833 390.5,270.5 Z"/></g>
<g><path style="opacity:0.231" fill="#feb7b1" d="M 320.5,270.5 C 322.262,271.262 323.262,272.596 323.5,274.5C 321.738,273.738 320.738,272.404 320.5,270.5 Z"/></g>
<g><path style="opacity:0.016" fill="#fededd" d="M 388.5,272.5 C 388.573,274.027 387.906,275.027 386.5,275.5C 386.427,273.973 387.094,272.973 388.5,272.5 Z"/></g>
<g><path style="opacity:0.427" fill="#fb8375" d="M 381.5,267.5 C 377.5,273.5 372.5,278.5 366.5,282.5C 371.167,277.167 376.167,272.167 381.5,267.5 Z"/></g>
<g><path style="opacity:0.094" fill="#ffddd6" d="M 366.5,282.5 C 366.167,283.5 365.5,284.167 364.5,284.5C 364.5,283.167 365.167,282.5 366.5,282.5 Z"/></g>
<g><path style="opacity:0.996" fill="#fef3ea" d="M 294.5,285.5 C 295.833,285.5 297.167,285.5 298.5,285.5C 300.975,286.687 301.975,288.687 301.5,291.5C 300.833,291.5 300.5,291.833 300.5,292.5C 295.677,292.673 293.677,290.339 294.5,285.5 Z"/></g>
<g><path style="opacity:0.997" fill="#ef3f3d" d="M 298.5,285.5 C 301.317,284.083 302.983,285.083 303.5,288.5C 303.547,290.038 302.88,291.038 301.5,291.5C 301.975,288.687 300.975,286.687 298.5,285.5 Z"/></g>
<g><path style="opacity:0.014" fill="#ffece6" d="M 325.5,280.5 C 326.175,283.178 327.509,285.512 329.5,287.5C 328.417,287.461 327.417,287.127 326.5,286.5C 325.534,284.604 325.201,282.604 325.5,280.5 Z"/></g>
<g><path style="opacity:0.137" fill="#fcd7d3" d="M 364.5,284.5 C 363.5,286.167 362.167,287.5 360.5,288.5C 360.833,286.167 362.167,284.833 364.5,284.5 Z"/></g>
<g><path style="opacity:0.508" fill="#feddd4" d="M 145.5,286.5 C 145.167,288.5 144.833,290.5 144.5,292.5C 143.522,292.189 142.855,291.522 142.5,290.5C 143.521,289.099 144.521,287.765 145.5,286.5 Z"/></g>
<g><path style="opacity:0.008" fill="#fededa" d="M 329.5,287.5 C 331.833,287.833 333.167,289.167 333.5,291.5C 331.833,290.5 330.5,289.167 329.5,287.5 Z"/></g>
<g><path style="opacity:0.012" fill="#feeaea" d="M 384.5,277.5 C 379.776,283.227 374.442,288.227 368.5,292.5C 373.224,286.773 378.558,281.773 384.5,277.5 Z"/></g>
<g><path style="opacity:0.996" fill="#ef4340" d="M 294.5,285.5 C 293.677,290.339 295.677,292.673 300.5,292.5C 294.186,295.244 291.686,293.244 293,286.5C 293.383,285.944 293.883,285.611 294.5,285.5 Z"/></g>
<g><path style="opacity:0.157" fill="#fcc5bf" d="M 360.5,288.5 C 360.167,289.5 359.5,290.167 358.5,290.5C 358.5,289.167 359.167,288.5 360.5,288.5 Z"/></g>
<g><path style="opacity:0.004" fill="#fee3e3" d="M 86.5,288.5 C 88.2624,289.262 89.2624,290.596 89.5,292.5C 87.7376,291.738 86.7376,290.404 86.5,288.5 Z"/></g>
<g><path style="opacity:0.259" fill="#fcbbb7" d="M 163.5,288.5 C 161.833,290.833 159.833,292.833 157.5,294.5C 158.5,291.5 160.5,289.5 163.5,288.5 Z"/></g>
<g><path style="opacity:0.259" fill="#fdcdcf" d="M 89.5,292.5 C 92.4274,293.757 94.7607,295.757 96.5,298.5C 93.5726,297.243 91.2393,295.243 89.5,292.5 Z"/></g>
<g><path style="opacity:0.004" fill="#fff0f0" d="M 368.5,292.5 C 368.5,293.833 367.833,294.5 366.5,294.5C 366.833,293.5 367.5,292.833 368.5,292.5 Z"/></g>
<g><path style="opacity:0.008" fill="#fed7d3" d="M 146.5,294.5 C 149.056,295.543 151.223,297.21 153,299.5C 153.708,298.619 154.542,297.953 155.5,297.5C 155.291,298.922 154.791,300.255 154,301.5C 151.002,299.667 148.502,297.334 146.5,294.5 Z"/></g>
<g><path style="opacity:0.18" fill="#fdb8b2" d="M 157.5,294.5 C 157.573,296.027 156.906,297.027 155.5,297.5C 155.427,295.973 156.094,294.973 157.5,294.5 Z"/></g>
<g><path style="opacity:0.004" fill="#fff5f5" d="M 366.5,294.5 C 366.5,296.5 365.5,297.5 363.5,297.5C 364.167,296.167 365.167,295.167 366.5,294.5 Z"/></g>
<g><path style="opacity:0.649" fill="#fefbfb" d="M 136.5,297.5 C 136.833,300.5 135.5,301.833 132.5,301.5C 133.5,299.833 134.833,298.5 136.5,297.5 Z"/></g>
<g><path style="opacity:0.247" fill="#fdcbc7" d="M 333.5,291.5 C 335.05,293.3 336.05,295.467 336.5,298C 335.901,299.622 335.234,301.122 334.5,302.5C 334.677,298.766 334.344,295.099 333.5,291.5 Z"/></g>
<g><path style="opacity:0.004" fill="#fee2e6" d="M 96.5,298.5 C 97.5,298.833 98.1667,299.5 98.5,300.5C 97.1667,300.5 96.5,299.833 96.5,298.5 Z"/></g>
<g><path style="opacity:0.664" fill="#fef5f4" d="M 139.5,299.5 C 141.167,300.5 142.5,301.833 143.5,303.5C 140.821,303.475 139.488,302.142 139.5,299.5 Z"/></g>
<g><path style="opacity:0.004" fill="#ffe9e9" d="M 98.5,300.5 C 99.5,300.833 100.167,301.5 100.5,302.5C 99.1667,302.5 98.5,301.833 98.5,300.5 Z"/></g>
<g><path style="opacity:0.008" fill="#feeae6" d="M 333.5,304.5 C 333.573,306.027 332.906,307.027 331.5,307.5C 331.427,305.973 332.094,304.973 333.5,304.5 Z"/></g>
<g><path style="opacity:0.369" fill="#ffcbc6" d="M 147.5,307.5 C 152.024,309.197 153.691,312.531 152.5,317.5C 151.691,315.708 151.191,313.708 151,311.5C 149.624,310.295 148.458,308.962 147.5,307.5 Z"/></g>
<g><path style="opacity:0.341" fill="#ffaeac" d="M 106.5,308.5 C 108.404,308.738 109.738,309.738 110.5,311.5C 108.596,311.262 107.262,310.262 106.5,308.5 Z"/></g>
<g><path style="opacity:0.412" fill="#fd958a" d="M 358.5,290.5 C 350.113,299.889 341.113,308.555 331.5,316.5C 339.887,307.111 348.887,298.445 358.5,290.5 Z"/></g>
<g><path style="opacity:0.094" fill="#ffddd8" d="M 331.5,316.5 C 331.167,317.5 330.5,318.167 329.5,318.5C 329.5,317.167 330.167,316.5 331.5,316.5 Z"/></g>
<g><path style="opacity:0.275" fill="#fef0e8" d="M 330.5,309.5 C 326.798,319.202 320.132,325.868 310.5,329.5C 318.167,323.833 324.833,317.167 330.5,309.5 Z"/></g>
<g><path style="opacity:0.129" fill="#fbdbd6" d="M 329.5,318.5 C 328.5,320.167 327.167,321.5 325.5,322.5C 325.833,320.167 327.167,318.833 329.5,318.5 Z"/></g>
<g><path style="opacity:0.016" fill="#fee7e6" d="M 348.5,312.5 C 344.108,317.894 339.108,322.561 333.5,326.5C 337.892,321.106 342.892,316.439 348.5,312.5 Z"/></g>
<g><path style="opacity:0.133" fill="#faccca" d="M 325.5,322.5 C 325.167,323.5 324.5,324.167 323.5,324.5C 323.5,323.167 324.167,322.5 325.5,322.5 Z"/></g>
<g><path style="opacity:0.753" fill="#ffeae0" d="M 213.5,324.5 C 212.021,325.759 210.354,326.759 208.5,327.5C 209.614,326.115 210.614,324.615 211.5,323C 212.816,322.472 213.483,322.972 213.5,324.5 Z"/></g>
<g><path style="opacity:0.004" fill="#fedcd8" d="M 239.5,325.5 C 241.833,327.167 243.833,329.167 245.5,331.5C 242.5,330.5 240.5,328.5 239.5,325.5 Z"/></g>
<g><path style="opacity:0.22" fill="#feb9ae" d="M 273.5,327.5 C 274.779,326.285 275.779,326.618 276.5,328.5C 275.391,328.443 274.391,328.11 273.5,327.5 Z"/></g>
<g><path style="opacity:0.008" fill="#fee4e3" d="M 156.5,326.5 C 157.906,326.973 158.573,327.973 158.5,329.5C 157.094,329.027 156.427,328.027 156.5,326.5 Z"/></g>
<g><path style="opacity:0.188" fill="#fbc2bd" d="M 323.5,324.5 C 321.833,326.833 319.833,328.833 317.5,330.5C 318.5,327.5 320.5,325.5 323.5,324.5 Z"/></g>
<g><path style="opacity:0.004" fill="#ffebeb" d="M 333.5,326.5 C 333.5,327.833 332.833,328.5 331.5,328.5C 331.833,327.5 332.5,326.833 333.5,326.5 Z"/></g>
<g><path style="opacity:1" fill="#ffeee5" d="M 216.5,326.5 C 221.644,328.264 226.977,328.931 232.5,328.5C 228.354,329.647 224.02,329.814 219.5,329C 218.058,328.623 217.058,327.79 216.5,326.5 Z"/></g>
<g><path style="opacity:0.004" fill="#ffeae7" d="M 273.5,327.5 C 273.027,328.906 272.027,329.573 270.5,329.5C 270.973,328.094 271.973,327.427 273.5,327.5 Z"/></g>
<g><path style="opacity:0.345" fill="#ffc6c4" d="M 158.5,329.5 C 161.089,330.419 163.089,332.086 164.5,334.5C 161.911,333.581 159.911,331.914 158.5,329.5 Z"/></g>
<g><path style="opacity:0.22" fill="#ffaea5" d="M 276.5,328.5 C 278.404,328.738 279.738,329.738 280.5,331.5C 278.596,331.262 277.262,330.262 276.5,328.5 Z"/></g>
<g><path style="opacity:0.047" fill="#ffe5d8" d="M 310.5,329.5 C 309.713,331.104 308.38,331.771 306.5,331.5C 307.514,330.326 308.847,329.66 310.5,329.5 Z"/></g>
<g><path style="opacity:0.004" fill="#fff4f2" d="M 331.5,328.5 C 331.5,330.5 330.5,331.5 328.5,331.5C 329.167,330.167 330.167,329.167 331.5,328.5 Z"/></g>
<g><path style="opacity:0.522" fill="#ffb0a8" d="M 245.5,331.5 C 247.698,331.12 249.365,331.787 250.5,333.5C 248.447,333.598 246.78,332.931 245.5,331.5 Z"/></g>
<g><path style="opacity:0.273" fill="#feebe3" d="M 203.5,331.5 C 202.216,333.614 200.216,334.614 197.5,334.5C 199.181,332.992 201.181,331.992 203.5,331.5 Z"/></g>
<g><path style="opacity:0.01" fill="#ffefee" d="M 266.5,331.5 C 265.713,333.104 264.38,333.771 262.5,333.5C 263.514,332.326 264.847,331.66 266.5,331.5 Z"/></g>
<g><path style="opacity:0.02" fill="#ffe7e1" d="M 282.5,332.5 C 289.833,333.833 297.167,333.833 304.5,332.5C 300.946,333.984 297.112,334.651 293,334.5C 289.195,334.696 285.695,334.03 282.5,332.5 Z"/></g>
<g><path style="opacity:0.522" fill="#ffb4af" d="M 166.5,335.5 C 168.698,335.12 170.365,335.787 171.5,337.5C 169.447,337.598 167.78,336.931 166.5,335.5 Z"/></g>
<g><path style="opacity:0.016" fill="#fedad6" d="M 197.5,334.5 C 196.517,335.85 195.184,336.85 193.5,337.5C 195.523,339.853 197.523,342.186 199.5,344.5C 196.101,342.612 193.101,340.112 190.5,337C 192.743,335.864 195.076,335.03 197.5,334.5 Z"/></g>
<g><path style="opacity:0.016" fill="#fee7e5" d="M 172.5,337.5 C 176.345,337.288 179.679,338.288 182.5,340.5C 178.917,339.993 175.583,338.993 172.5,337.5 Z"/></g>
<g><path style="opacity:0.345" fill="#fd9b8f" d="M 317.5,330.5 C 313.108,335.894 308.108,340.561 302.5,344.5C 306.892,339.106 311.892,334.439 317.5,330.5 Z"/></g>
<g><path style="opacity:0.004" fill="#fdeae6" d="M 182.5,340.5 C 183.5,340.833 184.167,341.5 184.5,342.5C 183.167,342.5 182.5,341.833 182.5,340.5 Z"/></g>
<g><path style="opacity:0.451" fill="#fb7f71" d="M 302.5,344.5 C 300.5,348.5 297.5,351.5 293.5,353.5C 296.167,350.167 299.167,347.167 302.5,344.5 Z"/></g>
<g><path style="opacity:0.361" fill="#ffc8c4" d="M 192.5,350.5 C 197.774,354.105 202.441,358.438 206.5,363.5C 201.226,359.895 196.559,355.562 192.5,350.5 Z"/></g>
<g><path style="opacity:0.129" fill="#fbdcd3" d="M 293.5,353.5 C 292.833,354.833 291.833,355.833 290.5,356.5C 290.5,354.5 291.5,353.5 293.5,353.5 Z"/></g>
<g><path style="opacity:0.004" fill="#feeae5" d="M 210.5,355.5 C 212.833,355.833 214.167,357.167 214.5,359.5C 212.833,358.5 211.5,357.167 210.5,355.5 Z"/></g>
<g><path style="opacity:0.008" fill="#fee8e6" d="M 311.5,348.5 C 307.773,353.23 303.44,357.23 298.5,360.5C 302.227,355.77 306.56,351.77 311.5,348.5 Z"/></g>
<g><path style="opacity:0.012" fill="#fed9d5" d="M 214.5,359.5 C 217.764,361.094 220.431,363.427 222.5,366.5C 219.236,364.906 216.569,362.573 214.5,359.5 Z"/></g>
<g><path style="opacity:0.004" fill="#ffeae8" d="M 206.5,363.5 C 207.5,363.833 208.167,364.5 208.5,365.5C 207.167,365.5 206.5,364.833 206.5,363.5 Z"/></g>
<g><path style="opacity:0.004" fill="#fff3f2" d="M 298.5,360.5 C 297.5,363.5 295.5,365.5 292.5,366.5C 294.167,364.167 296.167,362.167 298.5,360.5 Z"/></g>
<g><path style="opacity:0.29" fill="#ffbcb6" d="M 222.5,366.5 C 223.833,367.167 224.833,368.167 225.5,369.5C 223.5,369.5 222.5,368.5 222.5,366.5 Z"/></g>
<g><path style="opacity:0.004" fill="#fff3f3" d="M 292.5,366.5 C 292.5,367.833 291.833,368.5 290.5,368.5C 290.833,367.5 291.5,366.833 292.5,366.5 Z"/></g>
<g><path style="opacity:0.298" fill="#fdb5b0" d="M 290.5,356.5 C 285.5,362.167 280.167,367.5 274.5,372.5C 274.167,372.5 273.833,372.5 273.5,372.5C 278.557,366.441 284.224,361.107 290.5,356.5 Z"/></g>
<g><path style="opacity:0.353" fill="#fec5c0" d="M 216.5,373.5 C 220.771,376.101 224.437,379.434 227.5,383.5C 223.229,380.899 219.563,377.566 216.5,373.5 Z"/></g>
<g><path style="opacity:0.004" fill="#ffe3df" d="M 232.5,376.5 C 237.105,379.436 241.105,383.102 244.5,387.5C 239.895,384.564 235.895,380.898 232.5,376.5 Z"/></g>
<g><path style="opacity:0.4" fill="#fb897c" d="M 273.5,372.5 C 273.833,372.5 274.167,372.5 274.5,372.5C 269.776,378.227 264.442,383.227 258.5,387.5C 263.167,382.167 268.167,377.167 273.5,372.5 Z"/></g>
<g><path style="opacity:0.012" fill="#fee9e6" d="M 227.5,383.5 C 229.833,385.167 231.833,387.167 233.5,389.5C 230.5,388.5 228.5,386.5 227.5,383.5 Z"/></g>
<g><path style="opacity:0.078" fill="#fecbc8" d="M 245.5,388.5 C 249.167,389.833 252.833,389.833 256.5,388.5C 252.833,391.167 249.167,391.167 245.5,388.5 Z"/></g>
<g><path style="opacity:0.004" fill="#fff3f0" d="M 233.5,389.5 C 234.5,389.833 235.167,390.5 235.5,391.5C 234.167,391.5 233.5,390.833 233.5,389.5 Z"/></g>
<g><path style="opacity:0.012" fill="#fee8e6" d="M 274.5,384.5 C 271.437,388.566 267.771,391.899 263.5,394.5C 266.563,390.434 270.229,387.101 274.5,384.5 Z"/></g>
<g><path style="opacity:0.18" fill="#ffc6c2" d="M 237.5,393.5 C 239.404,393.738 240.738,394.738 241.5,396.5C 239.596,396.262 238.262,395.262 237.5,393.5 Z"/></g>
<g><path style="opacity:0.396" fill="#ffccc3" d="M 241.5,396.5 C 246.062,397.796 250.729,398.462 255.5,398.5C 250.552,400.097 245.886,399.431 241.5,396.5 Z"/></g>
<g><path style="opacity:0.018" fill="#feefed" d="M 262.5,395.5 C 261.713,397.104 260.38,397.771 258.5,397.5C 259.514,396.326 260.847,395.66 262.5,395.5 Z"/></g>
</svg>
